name Walk5.mot
datacolumns 19
datarows 20
range 1.44800000 1.46700000
endheader

                time	   L_ground_force_vx	   L_ground_force_vy	   L_ground_force_vz	   L_ground_force_px	   L_ground_force_py	   L_ground_force_pz	   R_ground_force_vx	   R_ground_force_vy	   R_ground_force_vz	   R_ground_force_px	   R_ground_force_py	   R_ground_force_pz	   L_ground_torque_x	   L_ground_torque_y	   L_ground_torque_z	   R_ground_torque_x	   R_ground_torque_y	   R_ground_torque_z	
          1.44800000	          0.08544853	          0.18871170	         -0.00490420	         -0.00016823	          0.00000000	         -0.00001644	        -26.64784717	        740.74723033	        -43.48001147	          0.16589204	          0.00000000	          0.08039767	          0.00000000	         -0.00017994	          0.00000000	          0.00000000	          1.75617400	          0.00000000	
          1.44900000	          0.08276798	          0.18433195	         -0.00556470	         -0.00020745	          0.00000000	         -0.00002125	        -26.28653731	        739.12912092	        -43.29443881	          0.16632290	          0.00000000	          0.08041968	          0.00000000	         -0.00019689	          0.00000000	          0.00000000	          1.73767679	          0.00000000	
          1.45000000	          0.08000258	          0.17962803	         -0.00614801	         -0.00024256	          0.00000000	         -0.00002557	        -25.92792565	        737.52563370	        -43.10430939	          0.16675422	          0.00000000	          0.08044154	          0.00000000	         -0.00021165	          0.00000000	          0.00000000	          1.71940356	          0.00000000	
          1.45100000	          0.07716999	          0.17464529	         -0.00665850	         -0.00027376	          0.00000000	         -0.00002942	        -25.57204655	        735.93808242	        -42.90985421	          0.16718595	          0.00000000	          0.08046327	          0.00000000	         -0.00022436	          0.00000000	          0.00000000	          1.70137942	          0.00000000	
          1.45200000	          0.07428664	          0.16942626	         -0.00710042	         -0.00030127	          0.00000000	         -0.00003283	        -25.21892942	        734.36770367	        -42.71132310	          0.16761806	          0.00000000	          0.08048490	          0.00000000	         -0.00023513	          0.00000000	          0.00000000	          1.68362936	          0.00000000	
          1.45300000	          0.07136773	          0.16401075	         -0.00747793	         -0.00032531	          0.00000000	         -0.00003584	        -24.86859840	        732.81565666	        -42.50898460	          0.16805053	          0.00000000	          0.08050644	          0.00000000	         -0.00024411	          0.00000000	          0.00000000	          1.66617804	          0.00000000	
          1.45400000	          0.06842731	          0.15843593	         -0.00779509	         -0.00034607	          0.00000000	         -0.00003845	        -24.52107239	        731.28302387	        -42.30312586	          0.16848331	          0.00000000	          0.08052791	          0.00000000	         -0.00025139	          0.00000000	          0.00000000	          1.64904962	          0.00000000	
          1.45500000	          0.06547833	          0.15273642	         -0.00805583	         -0.00036376	          0.00000000	         -0.00004069	        -24.17636539	        729.77081257	        -42.09405266	          0.16891640	          0.00000000	          0.08054934	          0.00000000	         -0.00025711	          0.00000000	          0.00000000	          1.63226779	          0.00000000	
          1.45600000	          0.06253266	          0.14694434	         -0.00826396	         -0.00037857	          0.00000000	         -0.00004259	        -23.83448698	        728.27995676	        -41.88208955	          0.16934976	          0.00000000	          0.08057072	          0.00000000	         -0.00026137	          0.00000000	          0.00000000	          1.61585584	          0.00000000	
          1.45700000	          0.05960114	          0.14108946	         -0.00842316	         -0.00039070	          0.00000000	         -0.00004416	        -23.49544296	        726.81131968	        -41.66757994	          0.16978340	          0.00000000	          0.08059208	          0.00000000	         -0.00026428	          0.00000000	          0.00000000	          1.59983678	          0.00000000	
          1.45800000	          0.05669366	          0.13519925	         -0.00853700	         -0.00040031	          0.00000000	         -0.00004544	        -23.15923580	        725.36569676	        -41.45088590	          0.17021729	          0.00000000	          0.08061344	          0.00000000	         -0.00026595	          0.00000000	          0.00000000	          1.58423347	          0.00000000	
          1.45900000	          0.05381915	          0.12929896	         -0.00860891	         -0.00040760	          0.00000000	         -0.00004643	        -22.82586504	        723.94381889	        -41.23238786	          0.17065146	          0.00000000	          0.08063480	          0.00000000	         -0.00026646	          0.00000000	          0.00000000	          1.56906866	          0.00000000	
          1.46000000	          0.05098567	          0.12341174	         -0.00864216	         -0.00041272	          0.00000000	         -0.00004717	        -22.49532757	        722.54635529	        -41.01248416	          0.17108589	          0.00000000	          0.08065618	          0.00000000	         -0.00026593	          0.00000000	          0.00000000	          1.55436504	          0.00000000	
          1.46100000	          0.04820044	          0.11755874	         -0.00863993	         -0.00041585	          0.00000000	         -0.00004766	        -22.16761754	        721.17391558	        -40.79159055	          0.17152059	          0.00000000	          0.08067759	          0.00000000	         -0.00026444	          0.00000000	          0.00000000	          1.54014531	          0.00000000	
          1.46200000	          0.04546989	          0.11175915	         -0.00860525	         -0.00041714	          0.00000000	         -0.00004793	        -21.84272604	        719.82705082	        -40.57013927	          0.17195559	          0.00000000	          0.08069904	          0.00000000	         -0.00026207	          0.00000000	          0.00000000	          1.52643215	          0.00000000	
          1.46300000	          0.04279968	          0.10603036	         -0.00854099	         -0.00041675	          0.00000000	         -0.00004800	        -21.52064037	        718.50625404	        -40.34857776	          0.17239089	          0.00000000	          0.08072054	          0.00000000	         -0.00025892	          0.00000000	          0.00000000	          1.51324799	          0.00000000	
          1.46400000	          0.04019477	          0.10038799	         -0.00844993	         -0.00041481	          0.00000000	         -0.00004788	        -21.20134331	        717.21196071	        -40.12736688	          0.17282651	          0.00000000	          0.08074209	          0.00000000	         -0.00025505	          0.00000000	          0.00000000	          1.50061469	          0.00000000	
          1.46500000	          0.03765945	          0.09484602	         -0.00833467	         -0.00041147	          0.00000000	         -0.00004759	        -20.88481228	        715.94454968	        -39.90697877	          0.17326247	          0.00000000	          0.08076370	          0.00000000	         -0.00025055	          0.00000000	          0.00000000	          1.48855315	          0.00000000	
          1.46600000	          0.03519740	          0.08941684	         -0.00819772	         -0.00040687	          0.00000000	         -0.00004715	        -20.57101894	        714.70434450	        -39.68789448	          0.17369880	          0.00000000	          0.08078538	          0.00000000	         -0.00024549	          0.00000000	          0.00000000	          1.47708309	          0.00000000	
          1.46700000	          0.03281167	          0.08411140	         -0.00804144	         -0.00040111	          0.00000000	         -0.00004656	        -20.25992883	        713.49161549	        -39.47060130	          0.17413553	          0.00000000	          0.08080712	          0.00000000	         -0.00023993	          0.00000000	          0.00000000	          1.46622299	          0.00000000	
